<mxfile host="65bd71144e" pages="5">
    <diagram id="41jnlIyqKGyFHsXuLWSg" name="termination">
        <mxGraphModel dx="1094" dy="896" grid="1" gridSize="10" guides="1" tooltips="1" connect="1" arrows="1" fold="1" page="1" pageScale="1" pageWidth="827" pageHeight="1169" math="0" shadow="0">
            <root>
                <mxCell id="0"/>
                <mxCell id="1" parent="0"/>
                <mxCell id="Pn2K9MNVC-29N6leKG3w-33" style="rounded=0;orthogonalLoop=1;jettySize=auto;html=1;exitX=0.5;exitY=1;exitDx=0;exitDy=0;entryX=0.5;entryY=0;entryDx=0;entryDy=0;" parent="1" source="Pn2K9MNVC-29N6leKG3w-1" target="Pn2K9MNVC-29N6leKG3w-25" edge="1">
                    <mxGeometry relative="1" as="geometry"/>
                </mxCell>
                <mxCell id="Pn2K9MNVC-29N6leKG3w-34" style="rounded=0;orthogonalLoop=1;jettySize=auto;html=1;exitX=0.5;exitY=1;exitDx=0;exitDy=0;entryX=0.5;entryY=0;entryDx=0;entryDy=0;" parent="1" source="Pn2K9MNVC-29N6leKG3w-1" target="Pn2K9MNVC-29N6leKG3w-26" edge="1">
                    <mxGeometry relative="1" as="geometry"/>
                </mxCell>
                <mxCell id="Pn2K9MNVC-29N6leKG3w-35" style="rounded=0;orthogonalLoop=1;jettySize=auto;html=1;exitX=0.5;exitY=1;exitDx=0;exitDy=0;entryX=0.5;entryY=0;entryDx=0;entryDy=0;" parent="1" source="Pn2K9MNVC-29N6leKG3w-1" target="Pn2K9MNVC-29N6leKG3w-27" edge="1">
                    <mxGeometry relative="1" as="geometry"/>
                </mxCell>
                <mxCell id="Pn2K9MNVC-29N6leKG3w-1" value="" style="ellipse;whiteSpace=wrap;html=1;aspect=fixed;" parent="1" vertex="1">
                    <mxGeometry x="130" y="200" width="20" height="20" as="geometry"/>
                </mxCell>
                <mxCell id="Pn2K9MNVC-29N6leKG3w-36" style="rounded=0;orthogonalLoop=1;jettySize=auto;html=1;exitX=0.5;exitY=1;exitDx=0;exitDy=0;entryX=0.5;entryY=0;entryDx=0;entryDy=0;" parent="1" source="Pn2K9MNVC-29N6leKG3w-2" target="Pn2K9MNVC-29N6leKG3w-26" edge="1">
                    <mxGeometry relative="1" as="geometry"/>
                </mxCell>
                <mxCell id="Pn2K9MNVC-29N6leKG3w-37" style="rounded=0;orthogonalLoop=1;jettySize=auto;html=1;exitX=0.5;exitY=1;exitDx=0;exitDy=0;entryX=0.5;entryY=0;entryDx=0;entryDy=0;" parent="1" source="Pn2K9MNVC-29N6leKG3w-2" target="Pn2K9MNVC-29N6leKG3w-27" edge="1">
                    <mxGeometry relative="1" as="geometry"/>
                </mxCell>
                <mxCell id="Pn2K9MNVC-29N6leKG3w-38" style="rounded=0;orthogonalLoop=1;jettySize=auto;html=1;exitX=0.5;exitY=1;exitDx=0;exitDy=0;entryX=0.5;entryY=0;entryDx=0;entryDy=0;" parent="1" source="Pn2K9MNVC-29N6leKG3w-2" target="Pn2K9MNVC-29N6leKG3w-28" edge="1">
                    <mxGeometry relative="1" as="geometry"/>
                </mxCell>
                <mxCell id="Pn2K9MNVC-29N6leKG3w-2" value="" style="ellipse;whiteSpace=wrap;html=1;aspect=fixed;" parent="1" vertex="1">
                    <mxGeometry x="170" y="200" width="20" height="20" as="geometry"/>
                </mxCell>
                <mxCell id="Pn2K9MNVC-29N6leKG3w-39" style="rounded=0;orthogonalLoop=1;jettySize=auto;html=1;exitX=0.5;exitY=1;exitDx=0;exitDy=0;entryX=0.5;entryY=0;entryDx=0;entryDy=0;" parent="1" source="Pn2K9MNVC-29N6leKG3w-3" target="Pn2K9MNVC-29N6leKG3w-27" edge="1">
                    <mxGeometry relative="1" as="geometry"/>
                </mxCell>
                <mxCell id="Pn2K9MNVC-29N6leKG3w-40" style="rounded=0;orthogonalLoop=1;jettySize=auto;html=1;exitX=0.5;exitY=1;exitDx=0;exitDy=0;entryX=0.5;entryY=0;entryDx=0;entryDy=0;" parent="1" source="Pn2K9MNVC-29N6leKG3w-3" target="Pn2K9MNVC-29N6leKG3w-28" edge="1">
                    <mxGeometry relative="1" as="geometry"/>
                </mxCell>
                <mxCell id="Pn2K9MNVC-29N6leKG3w-41" style="rounded=0;orthogonalLoop=1;jettySize=auto;html=1;exitX=0.5;exitY=1;exitDx=0;exitDy=0;entryX=0.5;entryY=0;entryDx=0;entryDy=0;" parent="1" source="Pn2K9MNVC-29N6leKG3w-3" target="Pn2K9MNVC-29N6leKG3w-29" edge="1">
                    <mxGeometry relative="1" as="geometry"/>
                </mxCell>
                <mxCell id="Pn2K9MNVC-29N6leKG3w-3" value="" style="ellipse;whiteSpace=wrap;html=1;aspect=fixed;" parent="1" vertex="1">
                    <mxGeometry x="210" y="200" width="20" height="20" as="geometry"/>
                </mxCell>
                <mxCell id="Pn2K9MNVC-29N6leKG3w-42" style="rounded=0;orthogonalLoop=1;jettySize=auto;html=1;exitX=0.5;exitY=1;exitDx=0;exitDy=0;entryX=0.5;entryY=0;entryDx=0;entryDy=0;" parent="1" source="Pn2K9MNVC-29N6leKG3w-4" target="Pn2K9MNVC-29N6leKG3w-28" edge="1">
                    <mxGeometry relative="1" as="geometry"/>
                </mxCell>
                <mxCell id="Pn2K9MNVC-29N6leKG3w-43" style="rounded=0;orthogonalLoop=1;jettySize=auto;html=1;exitX=0.5;exitY=1;exitDx=0;exitDy=0;entryX=0.5;entryY=0;entryDx=0;entryDy=0;" parent="1" source="Pn2K9MNVC-29N6leKG3w-4" target="Pn2K9MNVC-29N6leKG3w-29" edge="1">
                    <mxGeometry relative="1" as="geometry"/>
                </mxCell>
                <mxCell id="Pn2K9MNVC-29N6leKG3w-44" style="rounded=0;orthogonalLoop=1;jettySize=auto;html=1;exitX=0.5;exitY=1;exitDx=0;exitDy=0;entryX=0.5;entryY=0;entryDx=0;entryDy=0;" parent="1" source="Pn2K9MNVC-29N6leKG3w-4" target="Pn2K9MNVC-29N6leKG3w-30" edge="1">
                    <mxGeometry relative="1" as="geometry"/>
                </mxCell>
                <mxCell id="Pn2K9MNVC-29N6leKG3w-4" value="" style="ellipse;whiteSpace=wrap;html=1;aspect=fixed;" parent="1" vertex="1">
                    <mxGeometry x="250" y="200" width="20" height="20" as="geometry"/>
                </mxCell>
                <mxCell id="Pn2K9MNVC-29N6leKG3w-5" value="" style="ellipse;whiteSpace=wrap;html=1;aspect=fixed;" parent="1" vertex="1">
                    <mxGeometry x="120" y="280" width="20" height="20" as="geometry"/>
                </mxCell>
                <mxCell id="Pn2K9MNVC-29N6leKG3w-6" value="" style="ellipse;whiteSpace=wrap;html=1;aspect=fixed;" parent="1" vertex="1">
                    <mxGeometry x="140" y="280" width="20" height="20" as="geometry"/>
                </mxCell>
                <mxCell id="Pn2K9MNVC-29N6leKG3w-7" value="" style="ellipse;whiteSpace=wrap;html=1;aspect=fixed;" parent="1" vertex="1">
                    <mxGeometry x="160" y="280" width="20" height="20" as="geometry"/>
                </mxCell>
                <mxCell id="Pn2K9MNVC-29N6leKG3w-8" value="" style="ellipse;whiteSpace=wrap;html=1;aspect=fixed;" parent="1" vertex="1">
                    <mxGeometry x="180" y="280" width="20" height="20" as="geometry"/>
                </mxCell>
                <mxCell id="Pn2K9MNVC-29N6leKG3w-9" value="" style="ellipse;whiteSpace=wrap;html=1;aspect=fixed;" parent="1" vertex="1">
                    <mxGeometry x="200" y="280" width="20" height="20" as="geometry"/>
                </mxCell>
                <mxCell id="Pn2K9MNVC-29N6leKG3w-10" value="" style="ellipse;whiteSpace=wrap;html=1;aspect=fixed;" parent="1" vertex="1">
                    <mxGeometry x="220" y="280" width="20" height="20" as="geometry"/>
                </mxCell>
                <mxCell id="Pn2K9MNVC-29N6leKG3w-11" value="" style="ellipse;whiteSpace=wrap;html=1;aspect=fixed;" parent="1" vertex="1">
                    <mxGeometry x="240" y="280" width="20" height="20" as="geometry"/>
                </mxCell>
                <mxCell id="Pn2K9MNVC-29N6leKG3w-12" value="" style="ellipse;whiteSpace=wrap;html=1;aspect=fixed;" parent="1" vertex="1">
                    <mxGeometry x="260" y="280" width="20" height="20" as="geometry"/>
                </mxCell>
                <mxCell id="Pn2K9MNVC-29N6leKG3w-45" style="rounded=0;orthogonalLoop=1;jettySize=auto;html=1;exitX=0.5;exitY=1;exitDx=0;exitDy=0;entryX=0.5;entryY=0;entryDx=0;entryDy=0;" parent="1" source="Pn2K9MNVC-29N6leKG3w-13" target="Pn2K9MNVC-29N6leKG3w-29" edge="1">
                    <mxGeometry relative="1" as="geometry"/>
                </mxCell>
                <mxCell id="Pn2K9MNVC-29N6leKG3w-46" style="rounded=0;orthogonalLoop=1;jettySize=auto;html=1;exitX=0.5;exitY=1;exitDx=0;exitDy=0;entryX=0.5;entryY=0;entryDx=0;entryDy=0;" parent="1" source="Pn2K9MNVC-29N6leKG3w-13" target="Pn2K9MNVC-29N6leKG3w-30" edge="1">
                    <mxGeometry relative="1" as="geometry"/>
                </mxCell>
                <mxCell id="Pn2K9MNVC-29N6leKG3w-47" style="rounded=0;orthogonalLoop=1;jettySize=auto;html=1;exitX=0.5;exitY=1;exitDx=0;exitDy=0;entryX=0.5;entryY=0;entryDx=0;entryDy=0;" parent="1" source="Pn2K9MNVC-29N6leKG3w-13" target="Pn2K9MNVC-29N6leKG3w-31" edge="1">
                    <mxGeometry relative="1" as="geometry"/>
                </mxCell>
                <mxCell id="Pn2K9MNVC-29N6leKG3w-13" value="" style="ellipse;whiteSpace=wrap;html=1;aspect=fixed;" parent="1" vertex="1">
                    <mxGeometry x="290" y="200" width="20" height="20" as="geometry"/>
                </mxCell>
                <mxCell id="Pn2K9MNVC-29N6leKG3w-48" style="rounded=0;orthogonalLoop=1;jettySize=auto;html=1;exitX=0.5;exitY=1;exitDx=0;exitDy=0;entryX=0.5;entryY=0;entryDx=0;entryDy=0;" parent="1" source="Pn2K9MNVC-29N6leKG3w-14" target="Pn2K9MNVC-29N6leKG3w-30" edge="1">
                    <mxGeometry relative="1" as="geometry"/>
                </mxCell>
                <mxCell id="Pn2K9MNVC-29N6leKG3w-49" style="rounded=0;orthogonalLoop=1;jettySize=auto;html=1;exitX=0.5;exitY=1;exitDx=0;exitDy=0;entryX=0.5;entryY=0;entryDx=0;entryDy=0;" parent="1" source="Pn2K9MNVC-29N6leKG3w-14" target="Pn2K9MNVC-29N6leKG3w-31" edge="1">
                    <mxGeometry relative="1" as="geometry"/>
                </mxCell>
                <mxCell id="Pn2K9MNVC-29N6leKG3w-50" style="rounded=0;orthogonalLoop=1;jettySize=auto;html=1;exitX=0.5;exitY=1;exitDx=0;exitDy=0;entryX=0.5;entryY=0;entryDx=0;entryDy=0;" parent="1" source="Pn2K9MNVC-29N6leKG3w-14" target="Pn2K9MNVC-29N6leKG3w-32" edge="1">
                    <mxGeometry relative="1" as="geometry"/>
                </mxCell>
                <mxCell id="Pn2K9MNVC-29N6leKG3w-14" value="" style="ellipse;whiteSpace=wrap;html=1;aspect=fixed;" parent="1" vertex="1">
                    <mxGeometry x="330" y="200" width="20" height="20" as="geometry"/>
                </mxCell>
                <mxCell id="Pn2K9MNVC-29N6leKG3w-51" style="rounded=0;orthogonalLoop=1;jettySize=auto;html=1;exitX=0.5;exitY=1;exitDx=0;exitDy=0;entryX=0.5;entryY=0;entryDx=0;entryDy=0;fillColor=#dae8fc;strokeColor=#6c8ebf;" parent="1" source="Pn2K9MNVC-29N6leKG3w-15" target="Pn2K9MNVC-29N6leKG3w-31" edge="1">
                    <mxGeometry relative="1" as="geometry"/>
                </mxCell>
                <mxCell id="Pn2K9MNVC-29N6leKG3w-52" style="rounded=0;orthogonalLoop=1;jettySize=auto;html=1;exitX=0.5;exitY=1;exitDx=0;exitDy=0;entryX=0.5;entryY=0;entryDx=0;entryDy=0;fillColor=#dae8fc;strokeColor=#6c8ebf;" parent="1" source="Pn2K9MNVC-29N6leKG3w-15" target="Pn2K9MNVC-29N6leKG3w-32" edge="1">
                    <mxGeometry relative="1" as="geometry"/>
                </mxCell>
                <mxCell id="Pn2K9MNVC-29N6leKG3w-15" value="" style="ellipse;whiteSpace=wrap;html=1;aspect=fixed;fillColor=#dae8fc;strokeColor=#6c8ebf;" parent="1" vertex="1">
                    <mxGeometry x="370" y="200" width="20" height="20" as="geometry"/>
                </mxCell>
                <mxCell id="Pn2K9MNVC-29N6leKG3w-53" style="rounded=0;orthogonalLoop=1;jettySize=auto;html=1;exitX=0.5;exitY=1;exitDx=0;exitDy=0;entryX=0.5;entryY=0;entryDx=0;entryDy=0;fillColor=#d5e8d4;strokeColor=#82b366;" parent="1" source="Pn2K9MNVC-29N6leKG3w-16" target="Pn2K9MNVC-29N6leKG3w-32" edge="1">
                    <mxGeometry relative="1" as="geometry"/>
                </mxCell>
                <mxCell id="Pn2K9MNVC-29N6leKG3w-16" value="" style="ellipse;whiteSpace=wrap;html=1;aspect=fixed;fillColor=#d5e8d4;strokeColor=#82b366;" parent="1" vertex="1">
                    <mxGeometry x="410" y="200" width="20" height="20" as="geometry"/>
                </mxCell>
                <mxCell id="Pn2K9MNVC-29N6leKG3w-17" value="" style="ellipse;whiteSpace=wrap;html=1;aspect=fixed;" parent="1" vertex="1">
                    <mxGeometry x="280" y="280" width="20" height="20" as="geometry"/>
                </mxCell>
                <mxCell id="Pn2K9MNVC-29N6leKG3w-18" value="" style="ellipse;whiteSpace=wrap;html=1;aspect=fixed;" parent="1" vertex="1">
                    <mxGeometry x="300" y="280" width="20" height="20" as="geometry"/>
                </mxCell>
                <mxCell id="Pn2K9MNVC-29N6leKG3w-19" value="" style="ellipse;whiteSpace=wrap;html=1;aspect=fixed;" parent="1" vertex="1">
                    <mxGeometry x="320" y="280" width="20" height="20" as="geometry"/>
                </mxCell>
                <mxCell id="Pn2K9MNVC-29N6leKG3w-20" value="" style="ellipse;whiteSpace=wrap;html=1;aspect=fixed;" parent="1" vertex="1">
                    <mxGeometry x="340" y="280" width="20" height="20" as="geometry"/>
                </mxCell>
                <mxCell id="Pn2K9MNVC-29N6leKG3w-21" value="" style="ellipse;whiteSpace=wrap;html=1;aspect=fixed;" parent="1" vertex="1">
                    <mxGeometry x="360" y="280" width="20" height="20" as="geometry"/>
                </mxCell>
                <mxCell id="Pn2K9MNVC-29N6leKG3w-22" value="" style="ellipse;whiteSpace=wrap;html=1;aspect=fixed;" parent="1" vertex="1">
                    <mxGeometry x="380" y="280" width="20" height="20" as="geometry"/>
                </mxCell>
                <mxCell id="Pn2K9MNVC-29N6leKG3w-23" value="" style="ellipse;whiteSpace=wrap;html=1;aspect=fixed;" parent="1" vertex="1">
                    <mxGeometry x="400" y="280" width="20" height="20" as="geometry"/>
                </mxCell>
                <mxCell id="Pn2K9MNVC-29N6leKG3w-24" value="" style="ellipse;whiteSpace=wrap;html=1;aspect=fixed;" parent="1" vertex="1">
                    <mxGeometry x="420" y="280" width="20" height="20" as="geometry"/>
                </mxCell>
                <mxCell id="Pn2K9MNVC-29N6leKG3w-25" value="" style="rounded=0;whiteSpace=wrap;html=1;fillColor=none;" parent="1" vertex="1">
                    <mxGeometry x="120" y="280" width="40" height="20" as="geometry"/>
                </mxCell>
                <mxCell id="Pn2K9MNVC-29N6leKG3w-26" value="" style="rounded=0;whiteSpace=wrap;html=1;fillColor=none;" parent="1" vertex="1">
                    <mxGeometry x="160" y="280" width="40" height="20" as="geometry"/>
                </mxCell>
                <mxCell id="Pn2K9MNVC-29N6leKG3w-27" value="" style="rounded=0;whiteSpace=wrap;html=1;fillColor=none;" parent="1" vertex="1">
                    <mxGeometry x="200" y="280" width="40" height="20" as="geometry"/>
                </mxCell>
                <mxCell id="Pn2K9MNVC-29N6leKG3w-28" value="" style="rounded=0;whiteSpace=wrap;html=1;fillColor=none;" parent="1" vertex="1">
                    <mxGeometry x="240" y="280" width="40" height="20" as="geometry"/>
                </mxCell>
                <mxCell id="Pn2K9MNVC-29N6leKG3w-29" value="" style="rounded=0;whiteSpace=wrap;html=1;fillColor=none;" parent="1" vertex="1">
                    <mxGeometry x="280" y="280" width="40" height="20" as="geometry"/>
                </mxCell>
                <mxCell id="Pn2K9MNVC-29N6leKG3w-30" value="" style="rounded=0;whiteSpace=wrap;html=1;fillColor=none;" parent="1" vertex="1">
                    <mxGeometry x="320" y="280" width="40" height="20" as="geometry"/>
                </mxCell>
                <mxCell id="Pn2K9MNVC-29N6leKG3w-31" value="" style="rounded=0;whiteSpace=wrap;html=1;fillColor=none;" parent="1" vertex="1">
                    <mxGeometry x="360" y="280" width="40" height="20" as="geometry"/>
                </mxCell>
                <mxCell id="Pn2K9MNVC-29N6leKG3w-32" value="" style="rounded=0;whiteSpace=wrap;html=1;fillColor=none;" parent="1" vertex="1">
                    <mxGeometry x="400" y="280" width="40" height="20" as="geometry"/>
                </mxCell>
                <mxCell id="Pn2K9MNVC-29N6leKG3w-54" style="rounded=0;orthogonalLoop=1;jettySize=auto;html=1;exitX=0.5;exitY=1;exitDx=0;exitDy=0;entryX=0.5;entryY=0;entryDx=0;entryDy=0;" parent="1" source="Pn2K9MNVC-29N6leKG3w-57" target="Pn2K9MNVC-29N6leKG3w-99" edge="1">
                    <mxGeometry relative="1" as="geometry"/>
                </mxCell>
                <mxCell id="Pn2K9MNVC-29N6leKG3w-55" style="rounded=0;orthogonalLoop=1;jettySize=auto;html=1;exitX=0.5;exitY=1;exitDx=0;exitDy=0;entryX=0.5;entryY=0;entryDx=0;entryDy=0;" parent="1" source="Pn2K9MNVC-29N6leKG3w-57" target="Pn2K9MNVC-29N6leKG3w-100" edge="1">
                    <mxGeometry relative="1" as="geometry"/>
                </mxCell>
                <mxCell id="Pn2K9MNVC-29N6leKG3w-56" style="rounded=0;orthogonalLoop=1;jettySize=auto;html=1;exitX=0.5;exitY=1;exitDx=0;exitDy=0;entryX=0.5;entryY=0;entryDx=0;entryDy=0;" parent="1" source="Pn2K9MNVC-29N6leKG3w-57" target="Pn2K9MNVC-29N6leKG3w-101" edge="1">
                    <mxGeometry relative="1" as="geometry"/>
                </mxCell>
                <mxCell id="Pn2K9MNVC-29N6leKG3w-57" value="" style="ellipse;whiteSpace=wrap;html=1;aspect=fixed;" parent="1" vertex="1">
                    <mxGeometry x="490" y="200" width="20" height="20" as="geometry"/>
                </mxCell>
                <mxCell id="Pn2K9MNVC-29N6leKG3w-58" style="rounded=0;orthogonalLoop=1;jettySize=auto;html=1;exitX=0.5;exitY=1;exitDx=0;exitDy=0;entryX=0.5;entryY=0;entryDx=0;entryDy=0;" parent="1" source="Pn2K9MNVC-29N6leKG3w-61" target="Pn2K9MNVC-29N6leKG3w-100" edge="1">
                    <mxGeometry relative="1" as="geometry"/>
                </mxCell>
                <mxCell id="Pn2K9MNVC-29N6leKG3w-59" style="rounded=0;orthogonalLoop=1;jettySize=auto;html=1;exitX=0.5;exitY=1;exitDx=0;exitDy=0;entryX=0.5;entryY=0;entryDx=0;entryDy=0;" parent="1" source="Pn2K9MNVC-29N6leKG3w-61" target="Pn2K9MNVC-29N6leKG3w-101" edge="1">
                    <mxGeometry relative="1" as="geometry"/>
                </mxCell>
                <mxCell id="Pn2K9MNVC-29N6leKG3w-60" style="rounded=0;orthogonalLoop=1;jettySize=auto;html=1;exitX=0.5;exitY=1;exitDx=0;exitDy=0;entryX=0.5;entryY=0;entryDx=0;entryDy=0;" parent="1" source="Pn2K9MNVC-29N6leKG3w-61" target="Pn2K9MNVC-29N6leKG3w-102" edge="1">
                    <mxGeometry relative="1" as="geometry"/>
                </mxCell>
                <mxCell id="Pn2K9MNVC-29N6leKG3w-61" value="" style="ellipse;whiteSpace=wrap;html=1;aspect=fixed;" parent="1" vertex="1">
                    <mxGeometry x="530" y="200" width="20" height="20" as="geometry"/>
                </mxCell>
                <mxCell id="Pn2K9MNVC-29N6leKG3w-62" style="rounded=0;orthogonalLoop=1;jettySize=auto;html=1;exitX=0.5;exitY=1;exitDx=0;exitDy=0;entryX=0.5;entryY=0;entryDx=0;entryDy=0;" parent="1" source="Pn2K9MNVC-29N6leKG3w-65" target="Pn2K9MNVC-29N6leKG3w-101" edge="1">
                    <mxGeometry relative="1" as="geometry"/>
                </mxCell>
                <mxCell id="Pn2K9MNVC-29N6leKG3w-63" style="rounded=0;orthogonalLoop=1;jettySize=auto;html=1;exitX=0.5;exitY=1;exitDx=0;exitDy=0;entryX=0.5;entryY=0;entryDx=0;entryDy=0;" parent="1" source="Pn2K9MNVC-29N6leKG3w-65" target="Pn2K9MNVC-29N6leKG3w-102" edge="1">
                    <mxGeometry relative="1" as="geometry"/>
                </mxCell>
                <mxCell id="Pn2K9MNVC-29N6leKG3w-64" style="rounded=0;orthogonalLoop=1;jettySize=auto;html=1;exitX=0.5;exitY=1;exitDx=0;exitDy=0;entryX=0.5;entryY=0;entryDx=0;entryDy=0;" parent="1" source="Pn2K9MNVC-29N6leKG3w-65" target="Pn2K9MNVC-29N6leKG3w-103" edge="1">
                    <mxGeometry relative="1" as="geometry"/>
                </mxCell>
                <mxCell id="Pn2K9MNVC-29N6leKG3w-65" value="" style="ellipse;whiteSpace=wrap;html=1;aspect=fixed;" parent="1" vertex="1">
                    <mxGeometry x="570" y="200" width="20" height="20" as="geometry"/>
                </mxCell>
                <mxCell id="Pn2K9MNVC-29N6leKG3w-66" style="rounded=0;orthogonalLoop=1;jettySize=auto;html=1;exitX=0.5;exitY=1;exitDx=0;exitDy=0;entryX=0.5;entryY=0;entryDx=0;entryDy=0;" parent="1" source="Pn2K9MNVC-29N6leKG3w-69" target="Pn2K9MNVC-29N6leKG3w-102" edge="1">
                    <mxGeometry relative="1" as="geometry"/>
                </mxCell>
                <mxCell id="Pn2K9MNVC-29N6leKG3w-67" style="rounded=0;orthogonalLoop=1;jettySize=auto;html=1;exitX=0.5;exitY=1;exitDx=0;exitDy=0;entryX=0.5;entryY=0;entryDx=0;entryDy=0;" parent="1" source="Pn2K9MNVC-29N6leKG3w-69" target="Pn2K9MNVC-29N6leKG3w-103" edge="1">
                    <mxGeometry relative="1" as="geometry"/>
                </mxCell>
                <mxCell id="Pn2K9MNVC-29N6leKG3w-68" style="rounded=0;orthogonalLoop=1;jettySize=auto;html=1;exitX=0.5;exitY=1;exitDx=0;exitDy=0;entryX=0.5;entryY=0;entryDx=0;entryDy=0;" parent="1" source="Pn2K9MNVC-29N6leKG3w-69" target="Pn2K9MNVC-29N6leKG3w-104" edge="1">
                    <mxGeometry relative="1" as="geometry"/>
                </mxCell>
                <mxCell id="Pn2K9MNVC-29N6leKG3w-69" value="" style="ellipse;whiteSpace=wrap;html=1;aspect=fixed;" parent="1" vertex="1">
                    <mxGeometry x="610" y="200" width="20" height="20" as="geometry"/>
                </mxCell>
                <mxCell id="Pn2K9MNVC-29N6leKG3w-70" value="" style="ellipse;whiteSpace=wrap;html=1;aspect=fixed;" parent="1" vertex="1">
                    <mxGeometry x="480" y="280" width="20" height="20" as="geometry"/>
                </mxCell>
                <mxCell id="Pn2K9MNVC-29N6leKG3w-71" value="" style="ellipse;whiteSpace=wrap;html=1;aspect=fixed;" parent="1" vertex="1">
                    <mxGeometry x="500" y="280" width="20" height="20" as="geometry"/>
                </mxCell>
                <mxCell id="Pn2K9MNVC-29N6leKG3w-72" value="" style="ellipse;whiteSpace=wrap;html=1;aspect=fixed;" parent="1" vertex="1">
                    <mxGeometry x="520" y="280" width="20" height="20" as="geometry"/>
                </mxCell>
                <mxCell id="Pn2K9MNVC-29N6leKG3w-73" value="" style="ellipse;whiteSpace=wrap;html=1;aspect=fixed;" parent="1" vertex="1">
                    <mxGeometry x="540" y="280" width="20" height="20" as="geometry"/>
                </mxCell>
                <mxCell id="Pn2K9MNVC-29N6leKG3w-74" value="" style="ellipse;whiteSpace=wrap;html=1;aspect=fixed;" parent="1" vertex="1">
                    <mxGeometry x="560" y="280" width="20" height="20" as="geometry"/>
                </mxCell>
                <mxCell id="Pn2K9MNVC-29N6leKG3w-75" value="" style="ellipse;whiteSpace=wrap;html=1;aspect=fixed;" parent="1" vertex="1">
                    <mxGeometry x="580" y="280" width="20" height="20" as="geometry"/>
                </mxCell>
                <mxCell id="Pn2K9MNVC-29N6leKG3w-76" value="" style="ellipse;whiteSpace=wrap;html=1;aspect=fixed;" parent="1" vertex="1">
                    <mxGeometry x="600" y="280" width="20" height="20" as="geometry"/>
                </mxCell>
                <mxCell id="Pn2K9MNVC-29N6leKG3w-77" value="" style="ellipse;whiteSpace=wrap;html=1;aspect=fixed;" parent="1" vertex="1">
                    <mxGeometry x="620" y="280" width="20" height="20" as="geometry"/>
                </mxCell>
                <mxCell id="Pn2K9MNVC-29N6leKG3w-78" style="rounded=0;orthogonalLoop=1;jettySize=auto;html=1;exitX=0.5;exitY=1;exitDx=0;exitDy=0;entryX=0.5;entryY=0;entryDx=0;entryDy=0;" parent="1" source="Pn2K9MNVC-29N6leKG3w-81" target="Pn2K9MNVC-29N6leKG3w-103" edge="1">
                    <mxGeometry relative="1" as="geometry"/>
                </mxCell>
                <mxCell id="Pn2K9MNVC-29N6leKG3w-79" style="rounded=0;orthogonalLoop=1;jettySize=auto;html=1;exitX=0.5;exitY=1;exitDx=0;exitDy=0;entryX=0.5;entryY=0;entryDx=0;entryDy=0;" parent="1" source="Pn2K9MNVC-29N6leKG3w-81" target="Pn2K9MNVC-29N6leKG3w-104" edge="1">
                    <mxGeometry relative="1" as="geometry"/>
                </mxCell>
                <mxCell id="Pn2K9MNVC-29N6leKG3w-80" style="rounded=0;orthogonalLoop=1;jettySize=auto;html=1;exitX=0.5;exitY=1;exitDx=0;exitDy=0;entryX=0.5;entryY=0;entryDx=0;entryDy=0;" parent="1" source="Pn2K9MNVC-29N6leKG3w-81" target="Pn2K9MNVC-29N6leKG3w-105" edge="1">
                    <mxGeometry relative="1" as="geometry"/>
                </mxCell>
                <mxCell id="Pn2K9MNVC-29N6leKG3w-81" value="" style="ellipse;whiteSpace=wrap;html=1;aspect=fixed;" parent="1" vertex="1">
                    <mxGeometry x="650" y="200" width="20" height="20" as="geometry"/>
                </mxCell>
                <mxCell id="Pn2K9MNVC-29N6leKG3w-82" style="rounded=0;orthogonalLoop=1;jettySize=auto;html=1;exitX=0.5;exitY=1;exitDx=0;exitDy=0;entryX=0.5;entryY=0;entryDx=0;entryDy=0;" parent="1" source="Pn2K9MNVC-29N6leKG3w-85" target="Pn2K9MNVC-29N6leKG3w-104" edge="1">
                    <mxGeometry relative="1" as="geometry"/>
                </mxCell>
                <mxCell id="Pn2K9MNVC-29N6leKG3w-83" style="rounded=0;orthogonalLoop=1;jettySize=auto;html=1;exitX=0.5;exitY=1;exitDx=0;exitDy=0;entryX=0.5;entryY=0;entryDx=0;entryDy=0;" parent="1" source="Pn2K9MNVC-29N6leKG3w-85" target="Pn2K9MNVC-29N6leKG3w-105" edge="1">
                    <mxGeometry relative="1" as="geometry"/>
                </mxCell>
                <mxCell id="Pn2K9MNVC-29N6leKG3w-84" style="rounded=0;orthogonalLoop=1;jettySize=auto;html=1;exitX=0.5;exitY=1;exitDx=0;exitDy=0;entryX=0.5;entryY=0;entryDx=0;entryDy=0;" parent="1" source="Pn2K9MNVC-29N6leKG3w-85" target="Pn2K9MNVC-29N6leKG3w-106" edge="1">
                    <mxGeometry relative="1" as="geometry"/>
                </mxCell>
                <mxCell id="Pn2K9MNVC-29N6leKG3w-85" value="" style="ellipse;whiteSpace=wrap;html=1;aspect=fixed;" parent="1" vertex="1">
                    <mxGeometry x="690" y="200" width="20" height="20" as="geometry"/>
                </mxCell>
                <mxCell id="Pn2K9MNVC-29N6leKG3w-86" style="rounded=0;orthogonalLoop=1;jettySize=auto;html=1;exitX=0.5;exitY=1;exitDx=0;exitDy=0;entryX=0.5;entryY=0;entryDx=0;entryDy=0;dashed=1;" parent="1" source="Pn2K9MNVC-29N6leKG3w-88" target="Pn2K9MNVC-29N6leKG3w-105" edge="1">
                    <mxGeometry relative="1" as="geometry"/>
                </mxCell>
                <mxCell id="Pn2K9MNVC-29N6leKG3w-87" style="rounded=0;orthogonalLoop=1;jettySize=auto;html=1;exitX=0.5;exitY=1;exitDx=0;exitDy=0;entryX=0.5;entryY=0;entryDx=0;entryDy=0;dashed=1;" parent="1" source="Pn2K9MNVC-29N6leKG3w-88" target="Pn2K9MNVC-29N6leKG3w-106" edge="1">
                    <mxGeometry relative="1" as="geometry"/>
                </mxCell>
                <mxCell id="Pn2K9MNVC-29N6leKG3w-88" value="" style="ellipse;whiteSpace=wrap;html=1;aspect=fixed;dashed=1;" parent="1" vertex="1">
                    <mxGeometry x="730" y="200" width="20" height="20" as="geometry"/>
                </mxCell>
                <mxCell id="Pn2K9MNVC-29N6leKG3w-89" style="rounded=0;orthogonalLoop=1;jettySize=auto;html=1;exitX=0.5;exitY=1;exitDx=0;exitDy=0;entryX=0.5;entryY=0;entryDx=0;entryDy=0;dashed=1;" parent="1" source="Pn2K9MNVC-29N6leKG3w-90" target="Pn2K9MNVC-29N6leKG3w-106" edge="1">
                    <mxGeometry relative="1" as="geometry"/>
                </mxCell>
                <mxCell id="Pn2K9MNVC-29N6leKG3w-90" value="" style="ellipse;whiteSpace=wrap;html=1;aspect=fixed;dashed=1;" parent="1" vertex="1">
                    <mxGeometry x="770" y="200" width="20" height="20" as="geometry"/>
                </mxCell>
                <mxCell id="Pn2K9MNVC-29N6leKG3w-91" value="" style="ellipse;whiteSpace=wrap;html=1;aspect=fixed;" parent="1" vertex="1">
                    <mxGeometry x="640" y="280" width="20" height="20" as="geometry"/>
                </mxCell>
                <mxCell id="Pn2K9MNVC-29N6leKG3w-92" value="" style="ellipse;whiteSpace=wrap;html=1;aspect=fixed;" parent="1" vertex="1">
                    <mxGeometry x="660" y="280" width="20" height="20" as="geometry"/>
                </mxCell>
                <mxCell id="Pn2K9MNVC-29N6leKG3w-93" value="" style="ellipse;whiteSpace=wrap;html=1;aspect=fixed;" parent="1" vertex="1">
                    <mxGeometry x="680" y="280" width="20" height="20" as="geometry"/>
                </mxCell>
                <mxCell id="Pn2K9MNVC-29N6leKG3w-94" value="" style="ellipse;whiteSpace=wrap;html=1;aspect=fixed;" parent="1" vertex="1">
                    <mxGeometry x="700" y="280" width="20" height="20" as="geometry"/>
                </mxCell>
                <mxCell id="Pn2K9MNVC-29N6leKG3w-95" value="" style="ellipse;whiteSpace=wrap;html=1;aspect=fixed;" parent="1" vertex="1">
                    <mxGeometry x="720" y="280" width="20" height="20" as="geometry"/>
                </mxCell>
                <mxCell id="Pn2K9MNVC-29N6leKG3w-96" value="" style="ellipse;whiteSpace=wrap;html=1;aspect=fixed;" parent="1" vertex="1">
                    <mxGeometry x="740" y="280" width="20" height="20" as="geometry"/>
                </mxCell>
                <mxCell id="Pn2K9MNVC-29N6leKG3w-97" value="" style="ellipse;whiteSpace=wrap;html=1;aspect=fixed;" parent="1" vertex="1">
                    <mxGeometry x="760" y="280" width="20" height="20" as="geometry"/>
                </mxCell>
                <mxCell id="Pn2K9MNVC-29N6leKG3w-98" value="" style="ellipse;whiteSpace=wrap;html=1;aspect=fixed;" parent="1" vertex="1">
                    <mxGeometry x="780" y="280" width="20" height="20" as="geometry"/>
                </mxCell>
                <mxCell id="Pn2K9MNVC-29N6leKG3w-99" value="" style="rounded=0;whiteSpace=wrap;html=1;fillColor=none;" parent="1" vertex="1">
                    <mxGeometry x="480" y="280" width="40" height="20" as="geometry"/>
                </mxCell>
                <mxCell id="Pn2K9MNVC-29N6leKG3w-100" value="" style="rounded=0;whiteSpace=wrap;html=1;fillColor=none;" parent="1" vertex="1">
                    <mxGeometry x="520" y="280" width="40" height="20" as="geometry"/>
                </mxCell>
                <mxCell id="Pn2K9MNVC-29N6leKG3w-101" value="" style="rounded=0;whiteSpace=wrap;html=1;fillColor=none;" parent="1" vertex="1">
                    <mxGeometry x="560" y="280" width="40" height="20" as="geometry"/>
                </mxCell>
                <mxCell id="Pn2K9MNVC-29N6leKG3w-102" value="" style="rounded=0;whiteSpace=wrap;html=1;fillColor=none;" parent="1" vertex="1">
                    <mxGeometry x="600" y="280" width="40" height="20" as="geometry"/>
                </mxCell>
                <mxCell id="Pn2K9MNVC-29N6leKG3w-103" value="" style="rounded=0;whiteSpace=wrap;html=1;fillColor=none;" parent="1" vertex="1">
                    <mxGeometry x="640" y="280" width="40" height="20" as="geometry"/>
                </mxCell>
                <mxCell id="Pn2K9MNVC-29N6leKG3w-104" value="" style="rounded=0;whiteSpace=wrap;html=1;fillColor=none;" parent="1" vertex="1">
                    <mxGeometry x="680" y="280" width="40" height="20" as="geometry"/>
                </mxCell>
                <mxCell id="Pn2K9MNVC-29N6leKG3w-105" value="" style="rounded=0;whiteSpace=wrap;html=1;fillColor=none;" parent="1" vertex="1">
                    <mxGeometry x="720" y="280" width="40" height="20" as="geometry"/>
                </mxCell>
                <mxCell id="Pn2K9MNVC-29N6leKG3w-106" value="" style="rounded=0;whiteSpace=wrap;html=1;fillColor=none;" parent="1" vertex="1">
                    <mxGeometry x="760" y="280" width="40" height="20" as="geometry"/>
                </mxCell>
                <mxCell id="Pn2K9MNVC-29N6leKG3w-107" style="rounded=0;orthogonalLoop=1;jettySize=auto;html=1;exitX=0.5;exitY=1;exitDx=0;exitDy=0;entryX=0.5;entryY=0;entryDx=0;entryDy=0;" parent="1" source="Pn2K9MNVC-29N6leKG3w-110" target="Pn2K9MNVC-29N6leKG3w-152" edge="1">
                    <mxGeometry relative="1" as="geometry"/>
                </mxCell>
                <mxCell id="Pn2K9MNVC-29N6leKG3w-108" style="rounded=0;orthogonalLoop=1;jettySize=auto;html=1;exitX=0.5;exitY=1;exitDx=0;exitDy=0;entryX=0.5;entryY=0;entryDx=0;entryDy=0;" parent="1" source="Pn2K9MNVC-29N6leKG3w-110" target="Pn2K9MNVC-29N6leKG3w-153" edge="1">
                    <mxGeometry relative="1" as="geometry"/>
                </mxCell>
                <mxCell id="Pn2K9MNVC-29N6leKG3w-109" style="rounded=0;orthogonalLoop=1;jettySize=auto;html=1;exitX=0.5;exitY=1;exitDx=0;exitDy=0;entryX=0.5;entryY=0;entryDx=0;entryDy=0;" parent="1" source="Pn2K9MNVC-29N6leKG3w-110" target="Pn2K9MNVC-29N6leKG3w-154" edge="1">
                    <mxGeometry relative="1" as="geometry"/>
                </mxCell>
                <mxCell id="Pn2K9MNVC-29N6leKG3w-110" value="" style="ellipse;whiteSpace=wrap;html=1;aspect=fixed;" parent="1" vertex="1">
                    <mxGeometry x="130" y="520" width="20" height="20" as="geometry"/>
                </mxCell>
                <mxCell id="Pn2K9MNVC-29N6leKG3w-111" style="rounded=0;orthogonalLoop=1;jettySize=auto;html=1;exitX=0.5;exitY=1;exitDx=0;exitDy=0;entryX=0.5;entryY=0;entryDx=0;entryDy=0;" parent="1" source="Pn2K9MNVC-29N6leKG3w-114" target="Pn2K9MNVC-29N6leKG3w-153" edge="1">
                    <mxGeometry relative="1" as="geometry"/>
                </mxCell>
                <mxCell id="Pn2K9MNVC-29N6leKG3w-112" style="rounded=0;orthogonalLoop=1;jettySize=auto;html=1;exitX=0.5;exitY=1;exitDx=0;exitDy=0;entryX=0.5;entryY=0;entryDx=0;entryDy=0;" parent="1" source="Pn2K9MNVC-29N6leKG3w-114" target="Pn2K9MNVC-29N6leKG3w-154" edge="1">
                    <mxGeometry relative="1" as="geometry"/>
                </mxCell>
                <mxCell id="Pn2K9MNVC-29N6leKG3w-113" style="rounded=0;orthogonalLoop=1;jettySize=auto;html=1;exitX=0.5;exitY=1;exitDx=0;exitDy=0;entryX=0.5;entryY=0;entryDx=0;entryDy=0;" parent="1" source="Pn2K9MNVC-29N6leKG3w-114" target="Pn2K9MNVC-29N6leKG3w-155" edge="1">
                    <mxGeometry relative="1" as="geometry"/>
                </mxCell>
                <mxCell id="Pn2K9MNVC-29N6leKG3w-114" value="" style="ellipse;whiteSpace=wrap;html=1;aspect=fixed;" parent="1" vertex="1">
                    <mxGeometry x="170" y="520" width="20" height="20" as="geometry"/>
                </mxCell>
                <mxCell id="Pn2K9MNVC-29N6leKG3w-115" style="rounded=0;orthogonalLoop=1;jettySize=auto;html=1;exitX=0.5;exitY=1;exitDx=0;exitDy=0;entryX=0.5;entryY=0;entryDx=0;entryDy=0;" parent="1" source="Pn2K9MNVC-29N6leKG3w-118" target="Pn2K9MNVC-29N6leKG3w-154" edge="1">
                    <mxGeometry relative="1" as="geometry"/>
                </mxCell>
                <mxCell id="Pn2K9MNVC-29N6leKG3w-116" style="rounded=0;orthogonalLoop=1;jettySize=auto;html=1;exitX=0.5;exitY=1;exitDx=0;exitDy=0;entryX=0.5;entryY=0;entryDx=0;entryDy=0;" parent="1" source="Pn2K9MNVC-29N6leKG3w-118" target="Pn2K9MNVC-29N6leKG3w-155" edge="1">
                    <mxGeometry relative="1" as="geometry"/>
                </mxCell>
                <mxCell id="Pn2K9MNVC-29N6leKG3w-117" style="rounded=0;orthogonalLoop=1;jettySize=auto;html=1;exitX=0.5;exitY=1;exitDx=0;exitDy=0;entryX=0.5;entryY=0;entryDx=0;entryDy=0;" parent="1" source="Pn2K9MNVC-29N6leKG3w-118" target="Pn2K9MNVC-29N6leKG3w-156" edge="1">
                    <mxGeometry relative="1" as="geometry"/>
                </mxCell>
                <mxCell id="Pn2K9MNVC-29N6leKG3w-118" value="" style="ellipse;whiteSpace=wrap;html=1;aspect=fixed;" parent="1" vertex="1">
                    <mxGeometry x="210" y="520" width="20" height="20" as="geometry"/>
                </mxCell>
                <mxCell id="Pn2K9MNVC-29N6leKG3w-119" style="rounded=0;orthogonalLoop=1;jettySize=auto;html=1;exitX=0.5;exitY=1;exitDx=0;exitDy=0;entryX=0.5;entryY=0;entryDx=0;entryDy=0;" parent="1" source="Pn2K9MNVC-29N6leKG3w-122" target="Pn2K9MNVC-29N6leKG3w-155" edge="1">
                    <mxGeometry relative="1" as="geometry"/>
                </mxCell>
                <mxCell id="Pn2K9MNVC-29N6leKG3w-120" style="rounded=0;orthogonalLoop=1;jettySize=auto;html=1;exitX=0.5;exitY=1;exitDx=0;exitDy=0;entryX=0.5;entryY=0;entryDx=0;entryDy=0;" parent="1" source="Pn2K9MNVC-29N6leKG3w-122" target="Pn2K9MNVC-29N6leKG3w-156" edge="1">
                    <mxGeometry relative="1" as="geometry"/>
                </mxCell>
                <mxCell id="Pn2K9MNVC-29N6leKG3w-121" style="rounded=0;orthogonalLoop=1;jettySize=auto;html=1;exitX=0.5;exitY=1;exitDx=0;exitDy=0;entryX=0.5;entryY=0;entryDx=0;entryDy=0;" parent="1" source="Pn2K9MNVC-29N6leKG3w-122" target="Pn2K9MNVC-29N6leKG3w-157" edge="1">
                    <mxGeometry relative="1" as="geometry"/>
                </mxCell>
                <mxCell id="Pn2K9MNVC-29N6leKG3w-122" value="" style="ellipse;whiteSpace=wrap;html=1;aspect=fixed;" parent="1" vertex="1">
                    <mxGeometry x="250" y="520" width="20" height="20" as="geometry"/>
                </mxCell>
                <mxCell id="Pn2K9MNVC-29N6leKG3w-123" value="" style="ellipse;whiteSpace=wrap;html=1;aspect=fixed;" parent="1" vertex="1">
                    <mxGeometry x="120" y="600" width="20" height="20" as="geometry"/>
                </mxCell>
                <mxCell id="Pn2K9MNVC-29N6leKG3w-124" value="" style="ellipse;whiteSpace=wrap;html=1;aspect=fixed;" parent="1" vertex="1">
                    <mxGeometry x="140" y="600" width="20" height="20" as="geometry"/>
                </mxCell>
                <mxCell id="Pn2K9MNVC-29N6leKG3w-125" value="" style="ellipse;whiteSpace=wrap;html=1;aspect=fixed;" parent="1" vertex="1">
                    <mxGeometry x="160" y="600" width="20" height="20" as="geometry"/>
                </mxCell>
                <mxCell id="Pn2K9MNVC-29N6leKG3w-126" value="" style="ellipse;whiteSpace=wrap;html=1;aspect=fixed;" parent="1" vertex="1">
                    <mxGeometry x="180" y="600" width="20" height="20" as="geometry"/>
                </mxCell>
                <mxCell id="Pn2K9MNVC-29N6leKG3w-127" value="" style="ellipse;whiteSpace=wrap;html=1;aspect=fixed;" parent="1" vertex="1">
                    <mxGeometry x="200" y="600" width="20" height="20" as="geometry"/>
                </mxCell>
                <mxCell id="Pn2K9MNVC-29N6leKG3w-128" value="" style="ellipse;whiteSpace=wrap;html=1;aspect=fixed;" parent="1" vertex="1">
                    <mxGeometry x="220" y="600" width="20" height="20" as="geometry"/>
                </mxCell>
                <mxCell id="Pn2K9MNVC-29N6leKG3w-129" value="" style="ellipse;whiteSpace=wrap;html=1;aspect=fixed;" parent="1" vertex="1">
                    <mxGeometry x="240" y="600" width="20" height="20" as="geometry"/>
                </mxCell>
                <mxCell id="Pn2K9MNVC-29N6leKG3w-130" value="" style="ellipse;whiteSpace=wrap;html=1;aspect=fixed;" parent="1" vertex="1">
                    <mxGeometry x="260" y="600" width="20" height="20" as="geometry"/>
                </mxCell>
                <mxCell id="Pn2K9MNVC-29N6leKG3w-131" style="rounded=0;orthogonalLoop=1;jettySize=auto;html=1;exitX=0.5;exitY=1;exitDx=0;exitDy=0;entryX=0.5;entryY=0;entryDx=0;entryDy=0;" parent="1" source="Pn2K9MNVC-29N6leKG3w-134" target="Pn2K9MNVC-29N6leKG3w-156" edge="1">
                    <mxGeometry relative="1" as="geometry"/>
                </mxCell>
                <mxCell id="Pn2K9MNVC-29N6leKG3w-132" style="rounded=0;orthogonalLoop=1;jettySize=auto;html=1;exitX=0.5;exitY=1;exitDx=0;exitDy=0;entryX=0.5;entryY=0;entryDx=0;entryDy=0;" parent="1" source="Pn2K9MNVC-29N6leKG3w-134" target="Pn2K9MNVC-29N6leKG3w-157" edge="1">
                    <mxGeometry relative="1" as="geometry"/>
                </mxCell>
                <mxCell id="Pn2K9MNVC-29N6leKG3w-133" style="rounded=0;orthogonalLoop=1;jettySize=auto;html=1;exitX=0.5;exitY=1;exitDx=0;exitDy=0;entryX=0.5;entryY=0;entryDx=0;entryDy=0;" parent="1" source="Pn2K9MNVC-29N6leKG3w-134" target="Pn2K9MNVC-29N6leKG3w-158" edge="1">
                    <mxGeometry relative="1" as="geometry"/>
                </mxCell>
                <mxCell id="Pn2K9MNVC-29N6leKG3w-134" value="" style="ellipse;whiteSpace=wrap;html=1;aspect=fixed;" parent="1" vertex="1">
                    <mxGeometry x="290" y="520" width="20" height="20" as="geometry"/>
                </mxCell>
                <mxCell id="Pn2K9MNVC-29N6leKG3w-135" style="rounded=0;orthogonalLoop=1;jettySize=auto;html=1;exitX=0.5;exitY=1;exitDx=0;exitDy=0;entryX=0.5;entryY=0;entryDx=0;entryDy=0;" parent="1" source="Pn2K9MNVC-29N6leKG3w-138" target="Pn2K9MNVC-29N6leKG3w-157" edge="1">
                    <mxGeometry relative="1" as="geometry"/>
                </mxCell>
                <mxCell id="Pn2K9MNVC-29N6leKG3w-136" style="rounded=0;orthogonalLoop=1;jettySize=auto;html=1;exitX=0.5;exitY=1;exitDx=0;exitDy=0;entryX=0.5;entryY=0;entryDx=0;entryDy=0;" parent="1" source="Pn2K9MNVC-29N6leKG3w-138" target="Pn2K9MNVC-29N6leKG3w-158" edge="1">
                    <mxGeometry relative="1" as="geometry"/>
                </mxCell>
                <mxCell id="Pn2K9MNVC-29N6leKG3w-137" style="rounded=0;orthogonalLoop=1;jettySize=auto;html=1;exitX=0.5;exitY=1;exitDx=0;exitDy=0;entryX=0.5;entryY=0;entryDx=0;entryDy=0;" parent="1" source="Pn2K9MNVC-29N6leKG3w-138" target="Pn2K9MNVC-29N6leKG3w-159" edge="1">
                    <mxGeometry relative="1" as="geometry"/>
                </mxCell>
                <mxCell id="Pn2K9MNVC-29N6leKG3w-138" value="" style="ellipse;whiteSpace=wrap;html=1;aspect=fixed;" parent="1" vertex="1">
                    <mxGeometry x="330" y="520" width="20" height="20" as="geometry"/>
                </mxCell>
                <mxCell id="Pn2K9MNVC-29N6leKG3w-139" style="rounded=0;orthogonalLoop=1;jettySize=auto;html=1;exitX=0.5;exitY=1;exitDx=0;exitDy=0;entryX=0.5;entryY=0;entryDx=0;entryDy=0;" parent="1" source="Pn2K9MNVC-29N6leKG3w-141" target="Pn2K9MNVC-29N6leKG3w-158" edge="1">
                    <mxGeometry relative="1" as="geometry"/>
                </mxCell>
                <mxCell id="Pn2K9MNVC-29N6leKG3w-140" style="rounded=0;orthogonalLoop=1;jettySize=auto;html=1;exitX=0.5;exitY=1;exitDx=0;exitDy=0;entryX=0.5;entryY=0;entryDx=0;entryDy=0;" parent="1" source="Pn2K9MNVC-29N6leKG3w-141" target="Pn2K9MNVC-29N6leKG3w-159" edge="1">
                    <mxGeometry relative="1" as="geometry"/>
                </mxCell>
                <mxCell id="Pn2K9MNVC-29N6leKG3w-161" style="rounded=0;orthogonalLoop=1;jettySize=auto;html=1;exitX=0.5;exitY=1;exitDx=0;exitDy=0;entryX=0.5;entryY=0;entryDx=0;entryDy=0;fillColor=#dae8fc;strokeColor=#6c8ebf;" parent="1" source="Pn2K9MNVC-29N6leKG3w-141" target="Pn2K9MNVC-29N6leKG3w-152" edge="1">
                    <mxGeometry relative="1" as="geometry"/>
                </mxCell>
                <mxCell id="Pn2K9MNVC-29N6leKG3w-141" value="" style="ellipse;whiteSpace=wrap;html=1;aspect=fixed;fillColor=#dae8fc;strokeColor=#6c8ebf;" parent="1" vertex="1">
                    <mxGeometry x="370" y="520" width="20" height="20" as="geometry"/>
                </mxCell>
                <mxCell id="Pn2K9MNVC-29N6leKG3w-142" style="rounded=0;orthogonalLoop=1;jettySize=auto;html=1;exitX=0.5;exitY=1;exitDx=0;exitDy=0;entryX=0.5;entryY=0;entryDx=0;entryDy=0;" parent="1" source="Pn2K9MNVC-29N6leKG3w-143" target="Pn2K9MNVC-29N6leKG3w-159" edge="1">
                    <mxGeometry relative="1" as="geometry"/>
                </mxCell>
                <mxCell id="Pn2K9MNVC-29N6leKG3w-162" style="rounded=0;orthogonalLoop=1;jettySize=auto;html=1;exitX=0.5;exitY=1;exitDx=0;exitDy=0;entryX=0.5;entryY=0;entryDx=0;entryDy=0;fillColor=#d5e8d4;strokeColor=#82b366;" parent="1" source="Pn2K9MNVC-29N6leKG3w-143" target="Pn2K9MNVC-29N6leKG3w-152" edge="1">
                    <mxGeometry relative="1" as="geometry"/>
                </mxCell>
                <mxCell id="Pn2K9MNVC-29N6leKG3w-163" style="rounded=0;orthogonalLoop=1;jettySize=auto;html=1;exitX=0.5;exitY=1;exitDx=0;exitDy=0;entryX=0.5;entryY=0;entryDx=0;entryDy=0;fillColor=#d5e8d4;strokeColor=#82b366;" parent="1" source="Pn2K9MNVC-29N6leKG3w-143" target="Pn2K9MNVC-29N6leKG3w-153" edge="1">
                    <mxGeometry relative="1" as="geometry"/>
                </mxCell>
                <mxCell id="Pn2K9MNVC-29N6leKG3w-143" value="" style="ellipse;whiteSpace=wrap;html=1;aspect=fixed;fillColor=#d5e8d4;strokeColor=#82b366;" parent="1" vertex="1">
                    <mxGeometry x="410" y="520" width="20" height="20" as="geometry"/>
                </mxCell>
                <mxCell id="Pn2K9MNVC-29N6leKG3w-144" value="" style="ellipse;whiteSpace=wrap;html=1;aspect=fixed;" parent="1" vertex="1">
                    <mxGeometry x="280" y="600" width="20" height="20" as="geometry"/>
                </mxCell>
                <mxCell id="Pn2K9MNVC-29N6leKG3w-145" value="" style="ellipse;whiteSpace=wrap;html=1;aspect=fixed;" parent="1" vertex="1">
                    <mxGeometry x="300" y="600" width="20" height="20" as="geometry"/>
                </mxCell>
                <mxCell id="Pn2K9MNVC-29N6leKG3w-146" value="" style="ellipse;whiteSpace=wrap;html=1;aspect=fixed;" parent="1" vertex="1">
                    <mxGeometry x="320" y="600" width="20" height="20" as="geometry"/>
                </mxCell>
                <mxCell id="Pn2K9MNVC-29N6leKG3w-147" value="" style="ellipse;whiteSpace=wrap;html=1;aspect=fixed;" parent="1" vertex="1">
                    <mxGeometry x="340" y="600" width="20" height="20" as="geometry"/>
                </mxCell>
                <mxCell id="Pn2K9MNVC-29N6leKG3w-148" value="" style="ellipse;whiteSpace=wrap;html=1;aspect=fixed;" parent="1" vertex="1">
                    <mxGeometry x="360" y="600" width="20" height="20" as="geometry"/>
                </mxCell>
                <mxCell id="Pn2K9MNVC-29N6leKG3w-149" value="" style="ellipse;whiteSpace=wrap;html=1;aspect=fixed;" parent="1" vertex="1">
                    <mxGeometry x="380" y="600" width="20" height="20" as="geometry"/>
                </mxCell>
                <mxCell id="Pn2K9MNVC-29N6leKG3w-150" value="" style="ellipse;whiteSpace=wrap;html=1;aspect=fixed;" parent="1" vertex="1">
                    <mxGeometry x="400" y="600" width="20" height="20" as="geometry"/>
                </mxCell>
                <mxCell id="Pn2K9MNVC-29N6leKG3w-151" value="" style="ellipse;whiteSpace=wrap;html=1;aspect=fixed;" parent="1" vertex="1">
                    <mxGeometry x="420" y="600" width="20" height="20" as="geometry"/>
                </mxCell>
                <mxCell id="Pn2K9MNVC-29N6leKG3w-152" value="" style="rounded=0;whiteSpace=wrap;html=1;fillColor=none;" parent="1" vertex="1">
                    <mxGeometry x="120" y="600" width="40" height="20" as="geometry"/>
                </mxCell>
                <mxCell id="Pn2K9MNVC-29N6leKG3w-153" value="" style="rounded=0;whiteSpace=wrap;html=1;fillColor=none;" parent="1" vertex="1">
                    <mxGeometry x="160" y="600" width="40" height="20" as="geometry"/>
                </mxCell>
                <mxCell id="Pn2K9MNVC-29N6leKG3w-154" value="" style="rounded=0;whiteSpace=wrap;html=1;fillColor=none;" parent="1" vertex="1">
                    <mxGeometry x="200" y="600" width="40" height="20" as="geometry"/>
                </mxCell>
                <mxCell id="Pn2K9MNVC-29N6leKG3w-155" value="" style="rounded=0;whiteSpace=wrap;html=1;fillColor=none;" parent="1" vertex="1">
                    <mxGeometry x="240" y="600" width="40" height="20" as="geometry"/>
                </mxCell>
                <mxCell id="Pn2K9MNVC-29N6leKG3w-156" value="" style="rounded=0;whiteSpace=wrap;html=1;fillColor=none;" parent="1" vertex="1">
                    <mxGeometry x="280" y="600" width="40" height="20" as="geometry"/>
                </mxCell>
                <mxCell id="Pn2K9MNVC-29N6leKG3w-157" value="" style="rounded=0;whiteSpace=wrap;html=1;fillColor=none;" parent="1" vertex="1">
                    <mxGeometry x="320" y="600" width="40" height="20" as="geometry"/>
                </mxCell>
                <mxCell id="Pn2K9MNVC-29N6leKG3w-158" value="" style="rounded=0;whiteSpace=wrap;html=1;fillColor=none;" parent="1" vertex="1">
                    <mxGeometry x="360" y="600" width="40" height="20" as="geometry"/>
                </mxCell>
                <mxCell id="Pn2K9MNVC-29N6leKG3w-159" value="" style="rounded=0;whiteSpace=wrap;html=1;fillColor=none;" parent="1" vertex="1">
                    <mxGeometry x="400" y="600" width="40" height="20" as="geometry"/>
                </mxCell>
            </root>
        </mxGraphModel>
    </diagram>
    <diagram id="_GZWEVc8dt34sircrHpT" name="译码准则">
        <mxGraphModel dx="1185" dy="683" grid="1" gridSize="10" guides="1" tooltips="1" connect="1" arrows="1" fold="1" page="1" pageScale="1" pageWidth="827" pageHeight="1169" math="1" shadow="0">
            <root>
                <mxCell id="0"/>
                <mxCell id="1" parent="0"/>
                <mxCell id="bDczF1T4CcGgVYCU3Rs_-5" style="edgeStyle=orthogonalEdgeStyle;rounded=0;orthogonalLoop=1;jettySize=auto;html=1;exitX=1;exitY=0.5;exitDx=0;exitDy=0;entryX=0;entryY=0.5;entryDx=0;entryDy=0;" edge="1" parent="1" source="bDczF1T4CcGgVYCU3Rs_-1" target="bDczF1T4CcGgVYCU3Rs_-2">
                    <mxGeometry relative="1" as="geometry"/>
                </mxCell>
                <mxCell id="bDczF1T4CcGgVYCU3Rs_-1" value="最小译码错误概率" style="rounded=0;whiteSpace=wrap;html=1;" vertex="1" parent="1">
                    <mxGeometry x="80" y="520" width="120" height="60" as="geometry"/>
                </mxCell>
                <mxCell id="bDczF1T4CcGgVYCU3Rs_-4" value="$$\operatorname{Pr}(\boldsymbol{b})&lt;br&gt;$$&lt;br&gt;等概率" style="edgeStyle=orthogonalEdgeStyle;rounded=0;orthogonalLoop=1;jettySize=auto;html=1;exitX=1;exitY=0.5;exitDx=0;exitDy=0;entryX=0;entryY=0.5;entryDx=0;entryDy=0;labelBackgroundColor=none;" edge="1" parent="1" source="bDczF1T4CcGgVYCU3Rs_-2" target="bDczF1T4CcGgVYCU3Rs_-3">
                    <mxGeometry relative="1" as="geometry"/>
                </mxCell>
                <mxCell id="bDczF1T4CcGgVYCU3Rs_-2" value="最大后验概率准则&lt;br&gt;(MAP)" style="rounded=0;whiteSpace=wrap;html=1;" vertex="1" parent="1">
                    <mxGeometry x="280" y="520" width="120" height="60" as="geometry"/>
                </mxCell>
                <mxCell id="bDczF1T4CcGgVYCU3Rs_-7" value="BSC + Hamming&lt;br&gt;&lt;br&gt;AWGN + BPSK + squared Euclidean" style="edgeStyle=orthogonalEdgeStyle;rounded=0;orthogonalLoop=1;jettySize=auto;html=1;exitX=1;exitY=0.5;exitDx=0;exitDy=0;entryX=1;entryY=0.5;entryDx=0;entryDy=0;labelBackgroundColor=none;" edge="1" parent="1" source="bDczF1T4CcGgVYCU3Rs_-3" target="bDczF1T4CcGgVYCU3Rs_-6">
                    <mxGeometry relative="1" as="geometry"/>
                </mxCell>
                <mxCell id="bDczF1T4CcGgVYCU3Rs_-3" value="最大似然译码准则&lt;br&gt;(ML)" style="rounded=0;whiteSpace=wrap;html=1;" vertex="1" parent="1">
                    <mxGeometry x="480" y="520" width="120" height="60" as="geometry"/>
                </mxCell>
                <mxCell id="bDczF1T4CcGgVYCU3Rs_-6" value="最短距离译码准则" style="rounded=0;whiteSpace=wrap;html=1;" vertex="1" parent="1">
                    <mxGeometry x="80" y="600" width="120" height="60" as="geometry"/>
                </mxCell>
            </root>
        </mxGraphModel>
    </diagram>
    <diagram id="nxNHhfp5xvmKexlntYPz" name="viterbi">
        <mxGraphModel dx="1185" dy="683" grid="1" gridSize="10" guides="1" tooltips="1" connect="1" arrows="1" fold="1" page="1" pageScale="1" pageWidth="827" pageHeight="1169" math="1" shadow="0">
            <root>
                <mxCell id="0"/>
                <mxCell id="1" parent="0"/>
                <mxCell id="dI4t_n-Tst2kGbYph73Z-16" style="edgeStyle=orthogonalEdgeStyle;rounded=0;orthogonalLoop=1;jettySize=auto;html=1;exitX=1;exitY=0.5;exitDx=0;exitDy=0;entryX=0;entryY=0.5;entryDx=0;entryDy=0;" edge="1" parent="1" source="dI4t_n-Tst2kGbYph73Z-9" target="dI4t_n-Tst2kGbYph73Z-11">
                    <mxGeometry relative="1" as="geometry"/>
                </mxCell>
                <mxCell id="dI4t_n-Tst2kGbYph73Z-17" value="shortest" style="edgeStyle=orthogonalEdgeStyle;rounded=0;orthogonalLoop=1;jettySize=auto;html=1;exitX=1;exitY=0;exitDx=0;exitDy=0;entryX=0;entryY=0;entryDx=0;entryDy=0;curved=1;fillColor=#dae8fc;strokeColor=#6c8ebf;" edge="1" parent="1" source="dI4t_n-Tst2kGbYph73Z-9" target="dI4t_n-Tst2kGbYph73Z-11">
                    <mxGeometry relative="1" as="geometry">
                        <Array as="points">
                            <mxPoint x="194" y="260"/>
                            <mxPoint x="326" y="260"/>
                        </Array>
                    </mxGeometry>
                </mxCell>
                <mxCell id="dI4t_n-Tst2kGbYph73Z-18" style="edgeStyle=orthogonalEdgeStyle;rounded=0;orthogonalLoop=1;jettySize=auto;html=1;exitX=1;exitY=1;exitDx=0;exitDy=0;entryX=0;entryY=1;entryDx=0;entryDy=0;curved=1;" edge="1" parent="1" source="dI4t_n-Tst2kGbYph73Z-9" target="dI4t_n-Tst2kGbYph73Z-11">
                    <mxGeometry relative="1" as="geometry">
                        <Array as="points">
                            <mxPoint x="194" y="340"/>
                            <mxPoint x="326" y="340"/>
                        </Array>
                    </mxGeometry>
                </mxCell>
                <mxCell id="dI4t_n-Tst2kGbYph73Z-9" value="A" style="ellipse;whiteSpace=wrap;html=1;aspect=fixed;" vertex="1" parent="1">
                    <mxGeometry x="160" y="280" width="40" height="40" as="geometry"/>
                </mxCell>
                <mxCell id="dI4t_n-Tst2kGbYph73Z-19" style="edgeStyle=orthogonalEdgeStyle;rounded=0;orthogonalLoop=1;jettySize=auto;html=1;exitX=1;exitY=0.5;exitDx=0;exitDy=0;entryX=0;entryY=0.5;entryDx=0;entryDy=0;curved=1;" edge="1" parent="1" source="dI4t_n-Tst2kGbYph73Z-11" target="dI4t_n-Tst2kGbYph73Z-12">
                    <mxGeometry relative="1" as="geometry"/>
                </mxCell>
                <mxCell id="dI4t_n-Tst2kGbYph73Z-20" style="edgeStyle=orthogonalEdgeStyle;rounded=0;orthogonalLoop=1;jettySize=auto;html=1;exitX=1;exitY=0;exitDx=0;exitDy=0;entryX=0;entryY=0;entryDx=0;entryDy=0;curved=1;" edge="1" parent="1" source="dI4t_n-Tst2kGbYph73Z-11" target="dI4t_n-Tst2kGbYph73Z-12">
                    <mxGeometry relative="1" as="geometry">
                        <Array as="points">
                            <mxPoint x="354" y="260"/>
                            <mxPoint x="486" y="260"/>
                        </Array>
                    </mxGeometry>
                </mxCell>
                <mxCell id="dI4t_n-Tst2kGbYph73Z-22" value="shortest" style="edgeStyle=orthogonalEdgeStyle;rounded=0;orthogonalLoop=1;jettySize=auto;html=1;exitX=1;exitY=1;exitDx=0;exitDy=0;entryX=0;entryY=1;entryDx=0;entryDy=0;curved=1;fillColor=#dae8fc;strokeColor=#6c8ebf;" edge="1" parent="1" source="dI4t_n-Tst2kGbYph73Z-11" target="dI4t_n-Tst2kGbYph73Z-12">
                    <mxGeometry relative="1" as="geometry">
                        <Array as="points">
                            <mxPoint x="354" y="340"/>
                            <mxPoint x="486" y="340"/>
                        </Array>
                    </mxGeometry>
                </mxCell>
                <mxCell id="dI4t_n-Tst2kGbYph73Z-11" value="B" style="ellipse;whiteSpace=wrap;html=1;aspect=fixed;" vertex="1" parent="1">
                    <mxGeometry x="320" y="280" width="40" height="40" as="geometry"/>
                </mxCell>
                <mxCell id="dI4t_n-Tst2kGbYph73Z-12" value="C" style="ellipse;whiteSpace=wrap;html=1;aspect=fixed;" vertex="1" parent="1">
                    <mxGeometry x="480" y="280" width="40" height="40" as="geometry"/>
                </mxCell>
            </root>
        </mxGraphModel>
    </diagram>
    <diagram id="HjBgAx3uUR-0nhOKRjMD" name="(n,k,m)编码器">
        <mxGraphModel dx="988" dy="570" grid="1" gridSize="10" guides="1" tooltips="1" connect="1" arrows="1" fold="1" page="1" pageScale="1" pageWidth="827" pageHeight="1169" math="1" shadow="0">
            <root>
                <mxCell id="0"/>
                <mxCell id="1" parent="0"/>
                <mxCell id="V88G-z5IXkl-13kRSCpM-1" value="" style="rounded=0;whiteSpace=wrap;html=1;fillColor=#dae8fc;strokeColor=#6c8ebf;" vertex="1" parent="1">
                    <mxGeometry x="200" y="400" width="40" height="40" as="geometry"/>
                </mxCell>
                <mxCell id="V88G-z5IXkl-13kRSCpM-2" value="" style="rounded=0;whiteSpace=wrap;html=1;fillColor=#dae8fc;strokeColor=#6c8ebf;" vertex="1" parent="1">
                    <mxGeometry x="200" y="440" width="40" height="40" as="geometry"/>
                </mxCell>
                <mxCell id="V88G-z5IXkl-13kRSCpM-3" value="" style="rounded=0;whiteSpace=wrap;html=1;fillColor=#dae8fc;strokeColor=#6c8ebf;" vertex="1" parent="1">
                    <mxGeometry x="200" y="480" width="40" height="40" as="geometry"/>
                </mxCell>
                <mxCell id="V88G-z5IXkl-13kRSCpM-4" value="" style="rounded=0;whiteSpace=wrap;html=1;fillColor=#dae8fc;strokeColor=#6c8ebf;" vertex="1" parent="1">
                    <mxGeometry x="200" y="600" width="40" height="40" as="geometry"/>
                </mxCell>
                <mxCell id="V88G-z5IXkl-13kRSCpM-5" value="" style="rounded=0;whiteSpace=wrap;html=1;fillColor=#dae8fc;strokeColor=#6c8ebf;" vertex="1" parent="1">
                    <mxGeometry x="200" y="560" width="40" height="40" as="geometry"/>
                </mxCell>
                <mxCell id="V88G-z5IXkl-13kRSCpM-23" style="edgeStyle=orthogonalEdgeStyle;rounded=0;orthogonalLoop=1;jettySize=auto;html=1;exitX=1;exitY=0.5;exitDx=0;exitDy=0;entryX=0;entryY=0.5;entryDx=0;entryDy=0;" edge="1" parent="1" source="V88G-z5IXkl-13kRSCpM-7" target="V88G-z5IXkl-13kRSCpM-14">
                    <mxGeometry relative="1" as="geometry"/>
                </mxCell>
                <mxCell id="V88G-z5IXkl-13kRSCpM-7" value="$$g_{0,0&lt;br&gt;}$$" style="rounded=0;whiteSpace=wrap;html=1;fillColor=#d5e8d4;strokeColor=#82b366;" vertex="1" parent="1">
                    <mxGeometry x="320" y="400" width="80" height="40" as="geometry"/>
                </mxCell>
                <mxCell id="V88G-z5IXkl-13kRSCpM-8" value="(3,2,3)卷积编码&lt;br&gt;v = 2 + 3 = 5" style="text;html=1;align=center;verticalAlign=middle;resizable=0;points=[];autosize=1;strokeColor=none;fillColor=none;" vertex="1" parent="1">
                    <mxGeometry x="359" y="320" width="110" height="40" as="geometry"/>
                </mxCell>
                <mxCell id="V88G-z5IXkl-13kRSCpM-28" style="edgeStyle=orthogonalEdgeStyle;rounded=0;orthogonalLoop=1;jettySize=auto;html=1;exitX=1;exitY=0.5;exitDx=0;exitDy=0;entryX=0;entryY=0.5;entryDx=0;entryDy=0;" edge="1" parent="1" source="V88G-z5IXkl-13kRSCpM-9" target="V88G-z5IXkl-13kRSCpM-15">
                    <mxGeometry relative="1" as="geometry"/>
                </mxCell>
                <mxCell id="V88G-z5IXkl-13kRSCpM-9" value="$$g_{0,1&lt;br&gt;}$$" style="rounded=0;whiteSpace=wrap;html=1;fillColor=#d5e8d4;strokeColor=#82b366;" vertex="1" parent="1">
                    <mxGeometry x="320" y="440" width="80" height="40" as="geometry"/>
                </mxCell>
                <mxCell id="V88G-z5IXkl-13kRSCpM-30" style="edgeStyle=orthogonalEdgeStyle;rounded=0;orthogonalLoop=1;jettySize=auto;html=1;exitX=1;exitY=0.5;exitDx=0;exitDy=0;entryX=0;entryY=0.5;entryDx=0;entryDy=0;" edge="1" parent="1" source="V88G-z5IXkl-13kRSCpM-10" target="V88G-z5IXkl-13kRSCpM-16">
                    <mxGeometry relative="1" as="geometry"/>
                </mxCell>
                <mxCell id="V88G-z5IXkl-13kRSCpM-10" value="$$g_{0,2&lt;br&gt;}$$" style="rounded=0;whiteSpace=wrap;html=1;fillColor=#d5e8d4;strokeColor=#82b366;" vertex="1" parent="1">
                    <mxGeometry x="320" y="480" width="80" height="40" as="geometry"/>
                </mxCell>
                <mxCell id="V88G-z5IXkl-13kRSCpM-24" style="edgeStyle=orthogonalEdgeStyle;rounded=0;orthogonalLoop=1;jettySize=auto;html=1;exitX=1;exitY=0.5;exitDx=0;exitDy=0;entryX=0;entryY=0.5;entryDx=0;entryDy=0;" edge="1" parent="1" source="V88G-z5IXkl-13kRSCpM-11" target="V88G-z5IXkl-13kRSCpM-14">
                    <mxGeometry relative="1" as="geometry"/>
                </mxCell>
                <mxCell id="V88G-z5IXkl-13kRSCpM-11" value="$$g_{1,0&lt;br&gt;}$$" style="rounded=0;whiteSpace=wrap;html=1;fillColor=#d5e8d4;strokeColor=#82b366;" vertex="1" parent="1">
                    <mxGeometry x="320" y="560" width="80" height="40" as="geometry"/>
                </mxCell>
                <mxCell id="V88G-z5IXkl-13kRSCpM-29" style="edgeStyle=orthogonalEdgeStyle;rounded=0;orthogonalLoop=1;jettySize=auto;html=1;exitX=1;exitY=0.5;exitDx=0;exitDy=0;entryX=0;entryY=0.5;entryDx=0;entryDy=0;" edge="1" parent="1" source="V88G-z5IXkl-13kRSCpM-12" target="V88G-z5IXkl-13kRSCpM-15">
                    <mxGeometry relative="1" as="geometry"/>
                </mxCell>
                <mxCell id="V88G-z5IXkl-13kRSCpM-12" value="$$g_{1,0&lt;br&gt;}$$" style="rounded=0;whiteSpace=wrap;html=1;fillColor=#d5e8d4;strokeColor=#82b366;" vertex="1" parent="1">
                    <mxGeometry x="320" y="600" width="80" height="40" as="geometry"/>
                </mxCell>
                <mxCell id="V88G-z5IXkl-13kRSCpM-31" style="edgeStyle=orthogonalEdgeStyle;rounded=0;orthogonalLoop=1;jettySize=auto;html=1;exitX=1;exitY=0.5;exitDx=0;exitDy=0;entryX=0;entryY=0.5;entryDx=0;entryDy=0;" edge="1" parent="1" source="V88G-z5IXkl-13kRSCpM-13" target="V88G-z5IXkl-13kRSCpM-16">
                    <mxGeometry relative="1" as="geometry"/>
                </mxCell>
                <mxCell id="V88G-z5IXkl-13kRSCpM-13" value="$$g_{1,0&lt;br&gt;}$$" style="rounded=0;whiteSpace=wrap;html=1;fillColor=#d5e8d4;strokeColor=#82b366;" vertex="1" parent="1">
                    <mxGeometry x="320" y="640" width="80" height="40" as="geometry"/>
                </mxCell>
                <mxCell id="V88G-z5IXkl-13kRSCpM-27" style="edgeStyle=orthogonalEdgeStyle;rounded=0;orthogonalLoop=1;jettySize=auto;html=1;exitX=1;exitY=0.5;exitDx=0;exitDy=0;" edge="1" parent="1" source="V88G-z5IXkl-13kRSCpM-14">
                    <mxGeometry relative="1" as="geometry">
                        <mxPoint x="560" y="419.8571428571429" as="targetPoint"/>
                    </mxGeometry>
                </mxCell>
                <mxCell id="V88G-z5IXkl-13kRSCpM-14" value="" style="shape=orEllipse;perimeter=ellipsePerimeter;whiteSpace=wrap;html=1;backgroundOutline=1;" vertex="1" parent="1">
                    <mxGeometry x="480" y="400" width="40" height="40" as="geometry"/>
                </mxCell>
                <mxCell id="V88G-z5IXkl-13kRSCpM-32" style="edgeStyle=orthogonalEdgeStyle;rounded=0;orthogonalLoop=1;jettySize=auto;html=1;exitX=1;exitY=0.5;exitDx=0;exitDy=0;" edge="1" parent="1" source="V88G-z5IXkl-13kRSCpM-15">
                    <mxGeometry relative="1" as="geometry">
                        <mxPoint x="580" y="459.8571428571429" as="targetPoint"/>
                    </mxGeometry>
                </mxCell>
                <mxCell id="V88G-z5IXkl-13kRSCpM-15" value="" style="shape=orEllipse;perimeter=ellipsePerimeter;whiteSpace=wrap;html=1;backgroundOutline=1;" vertex="1" parent="1">
                    <mxGeometry x="500" y="440" width="40" height="40" as="geometry"/>
                </mxCell>
                <mxCell id="V88G-z5IXkl-13kRSCpM-33" style="edgeStyle=orthogonalEdgeStyle;rounded=0;orthogonalLoop=1;jettySize=auto;html=1;exitX=1;exitY=0.5;exitDx=0;exitDy=0;" edge="1" parent="1" source="V88G-z5IXkl-13kRSCpM-16">
                    <mxGeometry relative="1" as="geometry">
                        <mxPoint x="600" y="499.8571428571429" as="targetPoint"/>
                    </mxGeometry>
                </mxCell>
                <mxCell id="V88G-z5IXkl-13kRSCpM-16" value="" style="shape=orEllipse;perimeter=ellipsePerimeter;whiteSpace=wrap;html=1;backgroundOutline=1;" vertex="1" parent="1">
                    <mxGeometry x="520" y="480" width="40" height="40" as="geometry"/>
                </mxCell>
                <mxCell id="V88G-z5IXkl-13kRSCpM-47" style="edgeStyle=orthogonalEdgeStyle;rounded=0;orthogonalLoop=1;jettySize=auto;html=1;exitX=0.1;exitY=0.5;exitDx=0;exitDy=0;exitPerimeter=0;entryX=0;entryY=0.5;entryDx=0;entryDy=0;" edge="1" parent="1" source="V88G-z5IXkl-13kRSCpM-21" target="V88G-z5IXkl-13kRSCpM-7">
                    <mxGeometry relative="1" as="geometry"/>
                </mxCell>
                <mxCell id="V88G-z5IXkl-13kRSCpM-48" style="edgeStyle=orthogonalEdgeStyle;rounded=0;orthogonalLoop=1;jettySize=auto;html=1;exitX=0.1;exitY=0.5;exitDx=0;exitDy=0;exitPerimeter=0;entryX=0;entryY=0.5;entryDx=0;entryDy=0;" edge="1" parent="1" source="V88G-z5IXkl-13kRSCpM-21" target="V88G-z5IXkl-13kRSCpM-9">
                    <mxGeometry relative="1" as="geometry"/>
                </mxCell>
                <mxCell id="V88G-z5IXkl-13kRSCpM-49" style="edgeStyle=orthogonalEdgeStyle;rounded=0;orthogonalLoop=1;jettySize=auto;html=1;exitX=0.1;exitY=0.5;exitDx=0;exitDy=0;exitPerimeter=0;entryX=0;entryY=0.5;entryDx=0;entryDy=0;" edge="1" parent="1" source="V88G-z5IXkl-13kRSCpM-21" target="V88G-z5IXkl-13kRSCpM-10">
                    <mxGeometry relative="1" as="geometry"/>
                </mxCell>
                <mxCell id="V88G-z5IXkl-13kRSCpM-21" value="" style="shape=curlyBracket;whiteSpace=wrap;html=1;rounded=1;flipH=1;labelPosition=right;verticalLabelPosition=middle;align=left;verticalAlign=middle;" vertex="1" parent="1">
                    <mxGeometry x="250" y="400" width="20" height="120" as="geometry"/>
                </mxCell>
                <mxCell id="V88G-z5IXkl-13kRSCpM-44" style="edgeStyle=orthogonalEdgeStyle;rounded=0;orthogonalLoop=1;jettySize=auto;html=1;exitX=0.1;exitY=0.5;exitDx=0;exitDy=0;exitPerimeter=0;entryX=0;entryY=0.5;entryDx=0;entryDy=0;" edge="1" parent="1" source="V88G-z5IXkl-13kRSCpM-22" target="V88G-z5IXkl-13kRSCpM-11">
                    <mxGeometry relative="1" as="geometry"/>
                </mxCell>
                <mxCell id="V88G-z5IXkl-13kRSCpM-45" style="edgeStyle=orthogonalEdgeStyle;rounded=0;orthogonalLoop=1;jettySize=auto;html=1;exitX=0.1;exitY=0.5;exitDx=0;exitDy=0;exitPerimeter=0;entryX=0;entryY=0.5;entryDx=0;entryDy=0;" edge="1" parent="1" source="V88G-z5IXkl-13kRSCpM-22" target="V88G-z5IXkl-13kRSCpM-12">
                    <mxGeometry relative="1" as="geometry"/>
                </mxCell>
                <mxCell id="V88G-z5IXkl-13kRSCpM-46" style="edgeStyle=orthogonalEdgeStyle;rounded=0;orthogonalLoop=1;jettySize=auto;html=1;exitX=0.1;exitY=0.5;exitDx=0;exitDy=0;exitPerimeter=0;entryX=0;entryY=0.5;entryDx=0;entryDy=0;" edge="1" parent="1" source="V88G-z5IXkl-13kRSCpM-22" target="V88G-z5IXkl-13kRSCpM-13">
                    <mxGeometry relative="1" as="geometry"/>
                </mxCell>
                <mxCell id="V88G-z5IXkl-13kRSCpM-22" value="" style="shape=curlyBracket;whiteSpace=wrap;html=1;rounded=1;flipH=1;labelPosition=right;verticalLabelPosition=middle;align=left;verticalAlign=middle;" vertex="1" parent="1">
                    <mxGeometry x="250" y="560" width="20" height="120" as="geometry"/>
                </mxCell>
                <mxCell id="V88G-z5IXkl-13kRSCpM-25" value="" style="rounded=0;whiteSpace=wrap;html=1;fillColor=#dae8fc;strokeColor=#6c8ebf;" vertex="1" parent="1">
                    <mxGeometry x="520" y="601" width="40" height="20" as="geometry"/>
                </mxCell>
                <mxCell id="V88G-z5IXkl-13kRSCpM-26" value="移位寄存器" style="text;html=1;align=center;verticalAlign=middle;resizable=0;points=[];autosize=1;strokeColor=none;fillColor=none;" vertex="1" parent="1">
                    <mxGeometry x="560" y="596" width="80" height="30" as="geometry"/>
                </mxCell>
                <mxCell id="V88G-z5IXkl-13kRSCpM-34" value="" style="rounded=0;whiteSpace=wrap;html=1;fillColor=#d5e8d4;strokeColor=#82b366;" vertex="1" parent="1">
                    <mxGeometry x="520" y="641" width="40" height="20" as="geometry"/>
                </mxCell>
                <mxCell id="V88G-z5IXkl-13kRSCpM-35" value="sum of product" style="text;html=1;align=center;verticalAlign=middle;resizable=0;points=[];autosize=1;strokeColor=none;fillColor=none;" vertex="1" parent="1">
                    <mxGeometry x="560" y="636" width="100" height="30" as="geometry"/>
                </mxCell>
                <mxCell id="V88G-z5IXkl-13kRSCpM-41" style="edgeStyle=orthogonalEdgeStyle;rounded=0;orthogonalLoop=1;jettySize=auto;html=1;exitX=1;exitY=0.5;exitDx=0;exitDy=0;entryX=0.5;entryY=0;entryDx=0;entryDy=0;" edge="1" parent="1" source="V88G-z5IXkl-13kRSCpM-40" target="V88G-z5IXkl-13kRSCpM-1">
                    <mxGeometry relative="1" as="geometry"/>
                </mxCell>
                <mxCell id="V88G-z5IXkl-13kRSCpM-40" value="$$i_0$$" style="rounded=0;whiteSpace=wrap;html=1;fillColor=none;strokeColor=none;" vertex="1" parent="1">
                    <mxGeometry x="140" y="360" width="40" height="40" as="geometry"/>
                </mxCell>
                <mxCell id="V88G-z5IXkl-13kRSCpM-43" style="edgeStyle=orthogonalEdgeStyle;rounded=0;orthogonalLoop=1;jettySize=auto;html=1;exitX=1;exitY=0.5;exitDx=0;exitDy=0;entryX=0.5;entryY=0;entryDx=0;entryDy=0;" edge="1" parent="1" source="V88G-z5IXkl-13kRSCpM-42" target="V88G-z5IXkl-13kRSCpM-5">
                    <mxGeometry relative="1" as="geometry"/>
                </mxCell>
                <mxCell id="V88G-z5IXkl-13kRSCpM-42" value="$$i_1$$" style="rounded=0;whiteSpace=wrap;html=1;fillColor=none;strokeColor=none;" vertex="1" parent="1">
                    <mxGeometry x="140" y="520" width="40" height="40" as="geometry"/>
                </mxCell>
                <mxCell id="V88G-z5IXkl-13kRSCpM-51" value="$$o_0$$" style="rounded=0;whiteSpace=wrap;html=1;fillColor=none;strokeColor=none;" vertex="1" parent="1">
                    <mxGeometry x="560" y="400" width="40" height="40" as="geometry"/>
                </mxCell>
                <mxCell id="V88G-z5IXkl-13kRSCpM-52" value="$$o_1$$" style="rounded=0;whiteSpace=wrap;html=1;fillColor=none;strokeColor=none;" vertex="1" parent="1">
                    <mxGeometry x="580" y="440" width="40" height="40" as="geometry"/>
                </mxCell>
                <mxCell id="V88G-z5IXkl-13kRSCpM-53" value="$$o_2$$" style="rounded=0;whiteSpace=wrap;html=1;fillColor=none;strokeColor=none;" vertex="1" parent="1">
                    <mxGeometry x="600" y="480" width="40" height="40" as="geometry"/>
                </mxCell>
            </root>
        </mxGraphModel>
    </diagram>
    <diagram id="9Ip_jhSPXx2q0RRIr8V5" name="穿孔">
        <mxGraphModel dx="1094" dy="896" grid="1" gridSize="10" guides="1" tooltips="1" connect="1" arrows="1" fold="1" page="1" pageScale="1" pageWidth="827" pageHeight="1169" math="1" shadow="0">
            <root>
                <mxCell id="0"/>
                <mxCell id="1" parent="0"/>
                <mxCell id="1AoUHMmFWwm1MzS3xeYn-6" style="edgeStyle=orthogonalEdgeStyle;rounded=0;orthogonalLoop=1;jettySize=auto;html=1;exitX=1;exitY=0.5;exitDx=0;exitDy=0;entryX=0;entryY=0.5;entryDx=0;entryDy=0;" parent="1" source="1AoUHMmFWwm1MzS3xeYn-1" target="1AoUHMmFWwm1MzS3xeYn-5" edge="1">
                    <mxGeometry relative="1" as="geometry"/>
                </mxCell>
                <mxCell id="1AoUHMmFWwm1MzS3xeYn-1" value="" style="ellipse;whiteSpace=wrap;html=1;aspect=fixed;" parent="1" vertex="1">
                    <mxGeometry x="200" y="400" width="40" height="40" as="geometry"/>
                </mxCell>
                <mxCell id="1AoUHMmFWwm1MzS3xeYn-2" value="" style="ellipse;whiteSpace=wrap;html=1;aspect=fixed;" parent="1" vertex="1">
                    <mxGeometry x="160" y="400" width="40" height="40" as="geometry"/>
                </mxCell>
                <mxCell id="1AoUHMmFWwm1MzS3xeYn-3" value="" style="ellipse;whiteSpace=wrap;html=1;aspect=fixed;" parent="1" vertex="1">
                    <mxGeometry x="80" y="400" width="40" height="40" as="geometry"/>
                </mxCell>
                <mxCell id="1AoUHMmFWwm1MzS3xeYn-4" value="" style="ellipse;whiteSpace=wrap;html=1;aspect=fixed;" parent="1" vertex="1">
                    <mxGeometry x="120" y="400" width="40" height="40" as="geometry"/>
                </mxCell>
                <mxCell id="1AoUHMmFWwm1MzS3xeYn-16" style="edgeStyle=orthogonalEdgeStyle;rounded=0;orthogonalLoop=1;jettySize=auto;html=1;exitX=1;exitY=0.5;exitDx=0;exitDy=0;entryX=0;entryY=0.5;entryDx=0;entryDy=0;" parent="1" source="1AoUHMmFWwm1MzS3xeYn-5" target="1AoUHMmFWwm1MzS3xeYn-7" edge="1">
                    <mxGeometry relative="1" as="geometry"/>
                </mxCell>
                <mxCell id="1AoUHMmFWwm1MzS3xeYn-17" style="edgeStyle=orthogonalEdgeStyle;rounded=0;orthogonalLoop=1;jettySize=auto;html=1;exitX=1;exitY=0.5;exitDx=0;exitDy=0;entryX=0;entryY=0.5;entryDx=0;entryDy=0;" parent="1" source="1AoUHMmFWwm1MzS3xeYn-5" target="1AoUHMmFWwm1MzS3xeYn-8" edge="1">
                    <mxGeometry relative="1" as="geometry"/>
                </mxCell>
                <mxCell id="1AoUHMmFWwm1MzS3xeYn-5" value="&lt;div style=&quot;background-color: rgb(255, 255, 255); font-family: Consolas, &amp;quot;Courier New&amp;quot;, monospace; font-size: 16px; line-height: 22px;&quot;&gt;&lt;div style=&quot;line-height: 22px;&quot;&gt;$$\mathbb{B}(2,1,2)$$&lt;/div&gt;&lt;/div&gt;" style="rounded=0;whiteSpace=wrap;html=1;" parent="1" vertex="1">
                    <mxGeometry x="280" y="390" width="120" height="60" as="geometry"/>
                </mxCell>
                <mxCell id="1AoUHMmFWwm1MzS3xeYn-7" value="" style="ellipse;whiteSpace=wrap;html=1;aspect=fixed;" parent="1" vertex="1">
                    <mxGeometry x="440" y="380" width="40" height="40" as="geometry"/>
                </mxCell>
                <mxCell id="1AoUHMmFWwm1MzS3xeYn-8" value="" style="ellipse;whiteSpace=wrap;html=1;aspect=fixed;dashed=1;" parent="1" vertex="1">
                    <mxGeometry x="440" y="420" width="40" height="40" as="geometry"/>
                </mxCell>
                <mxCell id="1AoUHMmFWwm1MzS3xeYn-9" value="" style="ellipse;whiteSpace=wrap;html=1;aspect=fixed;" parent="1" vertex="1">
                    <mxGeometry x="480" y="380" width="40" height="40" as="geometry"/>
                </mxCell>
                <mxCell id="1AoUHMmFWwm1MzS3xeYn-10" value="" style="ellipse;whiteSpace=wrap;html=1;aspect=fixed;" parent="1" vertex="1">
                    <mxGeometry x="480" y="420" width="40" height="40" as="geometry"/>
                </mxCell>
                <mxCell id="1AoUHMmFWwm1MzS3xeYn-11" value="" style="ellipse;whiteSpace=wrap;html=1;aspect=fixed;" parent="1" vertex="1">
                    <mxGeometry x="520" y="380" width="40" height="40" as="geometry"/>
                </mxCell>
                <mxCell id="1AoUHMmFWwm1MzS3xeYn-12" value="" style="ellipse;whiteSpace=wrap;html=1;aspect=fixed;dashed=1;" parent="1" vertex="1">
                    <mxGeometry x="520" y="420" width="40" height="40" as="geometry"/>
                </mxCell>
                <mxCell id="1AoUHMmFWwm1MzS3xeYn-13" value="" style="ellipse;whiteSpace=wrap;html=1;aspect=fixed;" parent="1" vertex="1">
                    <mxGeometry x="560" y="380" width="40" height="40" as="geometry"/>
                </mxCell>
                <mxCell id="1AoUHMmFWwm1MzS3xeYn-14" value="" style="ellipse;whiteSpace=wrap;html=1;aspect=fixed;" parent="1" vertex="1">
                    <mxGeometry x="560" y="420" width="40" height="40" as="geometry"/>
                </mxCell>
                <mxCell id="1AoUHMmFWwm1MzS3xeYn-15" value="&lt;div style=&quot;background-color: rgb(255, 255, 255); font-family: Consolas, &amp;quot;Courier New&amp;quot;, monospace; font-size: 16px; line-height: 22px;&quot;&gt;$$\mathbf{P}=\left(\begin{array}{ll}1 &amp;amp; 1 \\1 &amp;amp; 0\end{array}\right)$$&lt;/div&gt;" style="text;html=1;align=center;verticalAlign=middle;resizable=0;points=[];autosize=1;strokeColor=none;fillColor=none;" parent="1" vertex="1">
                    <mxGeometry x="165" y="480" width="630" height="40" as="geometry"/>
                </mxCell>
                <mxCell id="1AoUHMmFWwm1MzS3xeYn-18" value="" style="rounded=0;whiteSpace=wrap;html=1;fillColor=none;" parent="1" vertex="1">
                    <mxGeometry x="440" y="380" width="80" height="80" as="geometry"/>
                </mxCell>
                <mxCell id="1AoUHMmFWwm1MzS3xeYn-19" value="" style="rounded=0;whiteSpace=wrap;html=1;fillColor=none;" parent="1" vertex="1">
                    <mxGeometry x="520" y="380" width="80" height="80" as="geometry"/>
                </mxCell>
            </root>
        </mxGraphModel>
    </diagram>
</mxfile>